<svg width="17" height="18" viewBox="0 0 17 18" fill="none" xmlns="http://www.w3.org/2000/svg">
<path fill-rule="evenodd" clip-rule="evenodd" d="M2.96154 8.41039C3.00203 8.3727 3.05012 8.3428 3.10308 8.3224C3.15603 8.302 3.21279 8.2915 3.27012 8.2915C3.32745 8.2915 3.38422 8.302 3.43717 8.3224C3.49012 8.3428 3.53821 8.3727 3.5787 8.41039L8.50028 12.9806L13.4219 8.41039C13.4624 8.37276 13.5105 8.34292 13.5634 8.32256C13.6164 8.3022 13.6731 8.29172 13.7304 8.29172C13.7877 8.29172 13.8445 8.3022 13.8974 8.32256C13.9504 8.34292 13.9985 8.37276 14.039 8.41039C14.0795 8.44801 14.1117 8.49268 14.1336 8.54183C14.1555 8.59099 14.1668 8.64368 14.1668 8.69689C14.1668 8.75009 14.1555 8.80278 14.1336 8.85194C14.1117 8.9011 14.0795 8.94576 14.039 8.98338L8.80886 13.8393C8.76837 13.877 8.72027 13.9069 8.66732 13.9273C8.61437 13.9477 8.55761 13.9582 8.50028 13.9582C8.44295 13.9582 8.38618 13.9477 8.33323 13.9273C8.28028 13.9069 8.23218 13.877 8.1917 13.8393L2.96154 8.98338C2.92095 8.94579 2.88875 8.90114 2.86678 8.85198C2.84481 8.80282 2.8335 8.75011 2.8335 8.69689C2.8335 8.64366 2.84481 8.59096 2.86678 8.54179C2.88875 8.49263 2.92095 8.44798 2.96154 8.41039Z" fill="#D0D0D0"/>
<path fill-rule="evenodd" clip-rule="evenodd" d="M2.96154 8.41039C3.00203 8.3727 3.05012 8.3428 3.10308 8.3224C3.15603 8.302 3.21279 8.2915 3.27012 8.2915C3.32745 8.2915 3.38422 8.302 3.43717 8.3224C3.49012 8.3428 3.53821 8.3727 3.5787 8.41039L8.50028 12.9806L13.4219 8.41039C13.4624 8.37276 13.5105 8.34292 13.5634 8.32256C13.6164 8.3022 13.6731 8.29172 13.7304 8.29172C13.7877 8.29172 13.8445 8.3022 13.8974 8.32256C13.9504 8.34292 13.9985 8.37276 14.039 8.41039C14.0795 8.44801 14.1117 8.49268 14.1336 8.54183C14.1555 8.59099 14.1668 8.64368 14.1668 8.69689C14.1668 8.75009 14.1555 8.80278 14.1336 8.85194C14.1117 8.9011 14.0795 8.94576 14.039 8.98338L8.80886 13.8393C8.76837 13.877 8.72027 13.9069 8.66732 13.9273C8.61437 13.9477 8.55761 13.9582 8.50028 13.9582C8.44295 13.9582 8.38618 13.9477 8.33323 13.9273C8.28028 13.9069 8.23218 13.877 8.1917 13.8393L2.96154 8.98338C2.92095 8.94579 2.88875 8.90114 2.86678 8.85198C2.84481 8.80282 2.8335 8.75011 2.8335 8.69689C2.8335 8.64366 2.84481 8.59096 2.86678 8.54179C2.88875 8.49263 2.92095 8.44798 2.96154 8.41039Z" fill="#D0D0D0"/>
<path fill-rule="evenodd" clip-rule="evenodd" d="M2.96154 8.41039C3.00203 8.3727 3.05012 8.3428 3.10308 8.3224C3.15603 8.302 3.21279 8.2915 3.27012 8.2915C3.32745 8.2915 3.38422 8.302 3.43717 8.3224C3.49012 8.3428 3.53821 8.3727 3.5787 8.41039L8.50028 12.9806L13.4219 8.41039C13.4624 8.37276 13.5105 8.34292 13.5634 8.32256C13.6164 8.3022 13.6731 8.29172 13.7304 8.29172C13.7877 8.29172 13.8445 8.3022 13.8974 8.32256C13.9504 8.34292 13.9985 8.37276 14.039 8.41039C14.0795 8.44801 14.1117 8.49268 14.1336 8.54183C14.1555 8.59099 14.1668 8.64368 14.1668 8.69689C14.1668 8.75009 14.1555 8.80278 14.1336 8.85194C14.1117 8.9011 14.0795 8.94576 14.039 8.98338L8.80886 13.8393C8.76837 13.877 8.72027 13.9069 8.66732 13.9273C8.61437 13.9477 8.55761 13.9582 8.50028 13.9582C8.44295 13.9582 8.38618 13.9477 8.33323 13.9273C8.28028 13.9069 8.23218 13.877 8.1917 13.8393L2.96154 8.98338C2.92095 8.94579 2.88875 8.90114 2.86678 8.85198C2.84481 8.80282 2.8335 8.75011 2.8335 8.69689C2.8335 8.64366 2.84481 8.59096 2.86678 8.54179C2.88875 8.49263 2.92095 8.44798 2.96154 8.41039Z" stroke="#D0D0D0" stroke-width="0.5"/>
<path fill-rule="evenodd" clip-rule="evenodd" d="M2.96154 8.41039C3.00203 8.3727 3.05012 8.3428 3.10308 8.3224C3.15603 8.302 3.21279 8.2915 3.27012 8.2915C3.32745 8.2915 3.38422 8.302 3.43717 8.3224C3.49012 8.3428 3.53821 8.3727 3.5787 8.41039L8.50028 12.9806L13.4219 8.41039C13.4624 8.37276 13.5105 8.34292 13.5634 8.32256C13.6164 8.3022 13.6731 8.29172 13.7304 8.29172C13.7877 8.29172 13.8445 8.3022 13.8974 8.32256C13.9504 8.34292 13.9985 8.37276 14.039 8.41039C14.0795 8.44801 14.1117 8.49268 14.1336 8.54183C14.1555 8.59099 14.1668 8.64368 14.1668 8.69689C14.1668 8.75009 14.1555 8.80278 14.1336 8.85194C14.1117 8.9011 14.0795 8.94576 14.039 8.98338L8.80886 13.8393C8.76837 13.877 8.72027 13.9069 8.66732 13.9273C8.61437 13.9477 8.55761 13.9582 8.50028 13.9582C8.44295 13.9582 8.38618 13.9477 8.33323 13.9273C8.28028 13.9069 8.23218 13.877 8.1917 13.8393L2.96154 8.98338C2.92095 8.94579 2.88875 8.90114 2.86678 8.85198C2.84481 8.80282 2.8335 8.75011 2.8335 8.69689C2.8335 8.64366 2.84481 8.59096 2.86678 8.54179C2.88875 8.49263 2.92095 8.44798 2.96154 8.41039Z" stroke="#D0D0D0" stroke-width="0.5"/>
</svg>
